<svg height="1800" width="2006" viewBox="-484 -104 2006 1800" style="background-color:transparent;" preserveAspectRatio="xMinYMin meet" xmlns:xlink="http://www.w3.org/1999/xlink" xmlns="http://www.w3.org/2000/svg"><defs><style type="text/css">.svg-txt-center tspan {text-anchor: middle;}.svg-txt-right tspan {text-anchor: end;}</style></defs><g transform="translate(0,0)"><g transform="matrix(1,0,0,1,496,191)"><path style="fill:rgb(51,153,255);stroke:rgb(45,137,229);stroke-width:3.0;;" d="m282.9987737664094,57.7674065993387c0,9.495345962910033 -12.228107971128916,17.19144663314487 -27.3149838622864,17.19144663314487l-228.28445000410687,0c-15.086875891157485,0 -27.3149838622864,-7.696100670234839 -27.3149838622864,-17.19144663314487l0,-35.6125788074805c0,-9.495345962910033 12.228107971128916,-17.19144663314487 27.3149838622864,-17.19144663314487l232.18567691958214,-4.911698139568024c15.088410800107836,0 27.31651877123675,10.152412633103095 27.31651877123675,19.647758596013126l-3.902812988057258,38.06792473260773z"/></g><text style="font-weight:bold; font-size: 30px; text-anchor: middle; font-family: arial,helvetica,sans-serif; fill: #333333;" class="svg-txt-center" y="242" x="639">Fullstack Dev</text></g><g transform="translate(0,0)"><path style="fill:none;stroke:#333333;stroke-width:2;;" d="M494,241 C333,241 333,602  172,602"/><polyline style="fill:#ffffff;stroke:#333333;stroke-width:2;fill-opacity:0;" points="188,590 172,602 190,609"/><text style="font-weight:Normal; font-size: 12px; text-anchor: middle; font-family: sans-serif; fill: #333333;" class="" y="600" x="191"/><text style="font-weight:Normal; font-size: 12px; text-anchor: start; font-family: sans-serif; fill: #333333;" class="" y="421" x="333"/><text style="font-weight:Normal; font-size: 12px; text-anchor: middle; font-family: sans-serif; fill: #333333;" class="" y="261" x="496"/></g><g transform="translate(0,0)"><g transform="matrix(1,0,0,1,150,1351)"><path style="fill:none;stroke:#333333;stroke-width:3.0;;" d="m92.68949384683793,29.26881934366494c0,4.810975287874417 -4.005024910404592,8.710332960793401 -8.946371021097288,8.710332960793401l-74.76912299786079,0c-4.941346110692695,0 -8.946371021097288,-3.8993576729189847 -8.946371021097288,-8.710332960793401l0,-18.043706595790123c0,-4.810975287874417 4.005024910404592,-8.710332960793401 8.946371021097288,-8.710332960793401l76.04687676111749,-2.488593724047799c4.941848833484797,0 8.94687374388939,5.143889067438901 8.94687374388939,9.954864355313317l-1.2782732434751995,19.287748531187916z"/></g><text style="font-weight:bold; font-size: 12px; text-anchor: middle; font-family: arial,helvetica,sans-serif; fill: #333333;" class="svg-txt-center" y="1374" x="197">web api</text></g><g transform="translate(0,0)"><path style="fill:none;stroke:#333333;stroke-width:2;;" d="M141,1267 C141,1307 197,1307  197,1347"/><polyline style="fill:#ffffff;stroke:#333333;stroke-width:2;fill-opacity:0;" points="185,1330 197,1347 205,1329"/><text style="font-weight:Normal; font-size: 12px; text-anchor: middle; font-family: sans-serif; fill: #333333;" class="" y="1327" x="199"/><text style="font-weight:Normal; font-size: 12px; text-anchor: start; font-family: sans-serif; fill: #333333;" class="" y="1307" x="169"/><text style="font-weight:Normal; font-size: 12px; text-anchor: middle; font-family: sans-serif; fill: #333333;" class="" y="1269" x="160"/></g><g transform="translate(0,0)"><g transform="matrix(1,0,0,1,-469,1577)"><path style="fill:none;stroke:#333333;stroke-width:3.0;;" d="m92.68949384683793,29.26881934366494c0,4.810975287874417 -4.005024910404592,8.710332960793401 -8.946371021097288,8.710332960793401l-74.76912299786079,0c-4.941346110692695,0 -8.946371021097288,-3.8993576729189847 -8.946371021097288,-8.710332960793401l0,-18.043706595790123c0,-4.810975287874417 4.005024910404592,-8.710332960793401 8.946371021097288,-8.710332960793401l76.04687676111749,-2.488593724047799c4.941848833484797,0 8.94687374388939,5.143889067438901 8.94687374388939,9.954864355313317l-1.2782732434751995,19.287748531187916z"/></g><text style="font-weight:bold; font-size: 12px; text-anchor: middle; font-family: arial,helvetica,sans-serif; fill: #333333;" class="svg-txt-center" y="1600" x="-422">chat bot</text></g><g transform="translate(0,0)"><path style="fill:none;stroke:#333333;stroke-width:2;;" d="M122,1261 C-152.5,1261 -427,1417  -427,1573"/><polyline style="fill:#ffffff;stroke:#333333;stroke-width:2;fill-opacity:0;" points="-435,1554 -427,1573 -415,1556"/><text style="font-weight:Normal; font-size: 12px; text-anchor: middle; font-family: sans-serif; fill: #333333;" class="" y="1580" x="-406"/><text style="font-weight:Normal; font-size: 12px; text-anchor: start; font-family: sans-serif; fill: #333333;" class="" y="1358" x="-255"/><text style="font-weight:Normal; font-size: 12px; text-anchor: middle; font-family: sans-serif; fill: #333333;" class="" y="1280" x="117"/></g><g transform="translate(0,0)"><g transform="matrix(1,0,0,1,-251,1517)"><path style="fill:none;stroke:#333333;stroke-width:3.0;;" d="m89.73131851130054,29.26881934366494c0,4.810975287874417 -3.8772049664555097,8.710332960793401 -8.660848541700565,8.710332960793401l-72.38287439154608,0c-4.783643575245056,0 -8.660848541700565,-3.8993576729189847 -8.660848541700565,-8.710332960793401l0,-18.043706595790123c0,-4.810975287874417 3.8772049664555097,-8.710332960793401 8.660848541700565,-8.710332960793401l73.6198487793797,-2.488593724047799c4.784130253692728,0 8.661335220148239,5.143889067438901 8.661335220148239,9.954864355313317l-1.2374772888962038,19.287748531187916z"/></g><text style="font-weight:bold; font-size: 12px; text-anchor: middle; font-family: arial,helvetica,sans-serif; fill: #333333;" class="svg-txt-center" y="1540" x="-206">postgre</text></g><g transform="translate(0,0)"><path style="fill:none;stroke:#333333;stroke-width:2;;" d="M-114,1428 C-135,1428 -135,1536  -156,1536"/><polyline style="fill:#ffffff;stroke:#333333;stroke-width:2;fill-opacity:0;" points="-141,1521 -156,1536 -136,1541"/><text style="font-weight:Normal; font-size: 12px; text-anchor: middle; font-family: sans-serif; fill: #333333;" class="" y="1526" x="-138"/><text style="font-weight:Normal; font-size: 12px; text-anchor: start; font-family: sans-serif; fill: #333333;" class="" y="1482" x="-135"/><text style="font-weight:Normal; font-size: 12px; text-anchor: middle; font-family: sans-serif; fill: #333333;" class="" y="1445" x="-105"/></g><g transform="translate(0,0)"><g transform="matrix(1,0,0,1,-106,1548)"><path style="fill:none;stroke:#333333;stroke-width:3.0;;" d="m86.77314317576317,29.26881934366494c0,4.810975287874417 -3.749385022506427,8.710332960793401 -8.375326062303845,8.710332960793401l-69.99662578523139,0c-4.625941039797417,0 -8.375326062303845,-3.8993576729189847 -8.375326062303845,-8.710332960793401l0,-18.043706595790123c0,-4.810975287874417 3.749385022506427,-8.710332960793401 8.375326062303845,-8.710332960793401l71.19282079764191,-2.488593724047799c4.626411673900661,0 8.375796696407088,5.143889067438901 8.375796696407088,9.954864355313317l-1.1966813343172082,19.287748531187916z"/></g><text style="font-weight:bold; font-size: 12px; text-anchor: middle; font-family: arial,helvetica,sans-serif; fill: #333333;" class="svg-txt-center" y="1571" x="-62">mongo</text></g><g transform="translate(0,0)"><path style="fill:none;stroke:#333333;stroke-width:2;;" d="M-62,1449 C-62,1496.5 -62,1496.5  -62,1544"/><polyline style="fill:#ffffff;stroke:#333333;stroke-width:2;fill-opacity:0;" points="-72,1526 -62,1544 -52,1526"/><text style="font-weight:Normal; font-size: 12px; text-anchor: middle; font-family: sans-serif; fill: #333333;" class="" y="1530" x="-47"/><text style="font-weight:Normal; font-size: 12px; text-anchor: start; font-family: sans-serif; fill: #333333;" class="" y="1496" x="-62"/><text style="font-weight:Normal; font-size: 12px; text-anchor: middle; font-family: sans-serif; fill: #333333;" class="" y="1463" x="-47"/></g><g transform="translate(0,0)"><g transform="matrix(1,0,0,1,98,1498)"><path style="fill:none;stroke:#333333;stroke-width:3.0;;" d="m70.01014960771802,29.26881934366494c0,4.810975287874417 -3.0250720067949586,8.710332960793401 -6.75736534572242,8.710332960793401l-56.47455034944805,0c-3.7322933389274615,0 -6.75736534572242,-3.8993576729189847 -6.75736534572242,-8.710332960793401l0,-18.043706595790123c0,-4.810975287874417 3.0250720067949586,-8.710332960793401 6.75736534572242,-8.710332960793401l57.43966223446109,-2.488593724047799c3.7326730550789424,0 6.757745061873901,5.143889067438901 6.757745061873901,9.954864355313317l-0.9655042583695658,19.287748531187916z"/></g><text style="font-weight:bold; font-size: 12px; text-anchor: middle; font-family: arial,helvetica,sans-serif; fill: #333333;" class="svg-txt-center" y="1521" x="133">rest</text></g><g transform="translate(0,0)"><g transform="matrix(1,0,0,1,-393,479)"><path style="fill:none;stroke:#333333;stroke-width:3.0;;" d="m85.78708473058404,29.26881934366494c0,4.810975287874417 -3.7067783745233993,8.710332960793401 -8.280151902504937,8.710332960793401l-69.20120958312647,0c-4.573373527981537,0 -8.280151902504937,-3.8993576729189847 -8.280151902504937,-8.710332960793401l0,-18.043706595790123c0,-4.810975287874417 3.7067783745233993,-8.710332960793401 8.280151902504937,-8.710332960793401l70.38381147039597,-2.488593724047799c4.573838813969971,0 8.28061718849337,5.143889067438901 8.28061718849337,9.954864355313317l-1.1830826827908762,19.287748531187916z"/></g><text style="font-weight:bold; font-size: 12px; text-anchor: middle; font-family: arial,helvetica,sans-serif; fill: #333333;" class="svg-txt-center" y="502" x="-350">docker</text></g><g transform="translate(0,0)"><path style="fill:none;stroke:#333333;stroke-width:2;;" d="M162,1391 C162,1442.5 133,1442.5  133,1494"/><polyline style="fill:#ffffff;stroke:#333333;stroke-width:2;fill-opacity:0;" points="123,1476 133,1494 143,1476"/><text style="font-weight:Normal; font-size: 12px; text-anchor: middle; font-family: sans-serif; fill: #333333;" class="" y="1483" x="151"/><text style="font-weight:Normal; font-size: 12px; text-anchor: start; font-family: sans-serif; fill: #333333;" class="" y="1442" x="147"/><text style="font-weight:Normal; font-size: 12px; text-anchor: middle; font-family: sans-serif; fill: #333333;" class="" y="1407" x="173"/></g><g transform="translate(0,0)"><g transform="matrix(1,0,0,1,303,1489)"><path style="fill:none;stroke:#333333;stroke-width:3.0;;" d="m96.63372762755444,29.26881934366494c0,4.810975287874417 -4.175451502336703,8.710332960793401 -9.327067660292917,8.710332960793401l-77.9507878062804,0c-5.151616157956214,0 -9.327067660292917,-3.8993576729189847 -9.327067660292917,-8.710332960793401l0,-18.043706595790123c0,-4.810975287874417 4.175451502336703,-8.710332960793401 9.327067660292917,-8.710332960793401l79.28291407010121,-2.488593724047799c5.152140273207554,0 9.327591775544256,5.143889067438901 9.327591775544256,9.954864355313317l-1.3326678495805273,19.287748531187916z"/></g><text style="font-weight:bold; font-size: 12px; text-anchor: middle; font-family: arial,helvetica,sans-serif; fill: #333333;" class="svg-txt-center" y="1512" x="352">graphQL</text></g><g transform="translate(0,0)"><path style="fill:none;stroke:#333333;stroke-width:2;;" d="M197,1391 C197,1438 328,1438  328,1485"/><polyline style="fill:#ffffff;stroke:#333333;stroke-width:2;fill-opacity:0;" points="315,1469 328,1485 335,1466"/><text style="font-weight:Normal; font-size: 12px; text-anchor: middle; font-family: sans-serif; fill: #333333;" class="" y="1465" x="323"/><text style="font-weight:Normal; font-size: 12px; text-anchor: start; font-family: sans-serif; fill: #333333;" class="" y="1438" x="262"/><text style="font-weight:Normal; font-size: 12px; text-anchor: middle; font-family: sans-serif; fill: #333333;" class="" y="1386" x="216"/></g><g transform="translate(0,0)"><path style="fill:none;stroke:#333333;stroke-width:2;;" d="M-35,247 C-168.5,247 -168.5,498  -302,498"/><polyline style="fill:#ffffff;stroke:#333333;stroke-width:2;fill-opacity:0;" points="-285,486 -302,498 -283,506"/><text style="font-weight:Normal; font-size: 12px; text-anchor: middle; font-family: sans-serif; fill: #333333;" class="" y="497" x="-282"/><text style="font-weight:Normal; font-size: 12px; text-anchor: start; font-family: sans-serif; fill: #333333;" class="" y="372" x="-168"/><text style="font-weight:Normal; font-size: 12px; text-anchor: middle; font-family: sans-serif; fill: #333333;" class="" y="266" x="-34"/></g><g transform="translate(0,0)"><g transform="matrix(1,0,0,1,-33,182)"><path style="fill:none;stroke:#333333;stroke-width:3.0;;" d="m0,0.3428137817883511l208.21652792380212,-2.062202214930271l1.838531264110787,133.74680885972109l-209.03562684088087,-0.41191386382280565z"/><path style="fill:#333333;stroke:none;stroke-width:3.0;;stroke: none;" d="m84.248274,-6.1981l38.0093,-2.40741l-0.603966,2.40741l3.76254,0.531494l-2.13063,2.4458l-1.31318,1.85211l3.61304,0l-2.87453,2.84827l2.21614,2.70691l-40.9795,2.25l0.300789,-2.40662l-2.71546,-0.902466l3.31823,-1.50378l-3.85104,-3.49121l3.36488,-1.28223l-2.0523,-1.42377l1.93569,-1.62451z"/></g><text style="font-weight:Normal; font-size: 12px; text-anchor: start; font-family: arial,helvetica,sans-serif; fill: #333333;" class="" y="208" x="-18"><tspan x="-18" font-weight="bold" font-size="36" dy="26">devops</tspan><tspan dy="28" dx="7" x="-18">&#x2022;&#x00A0;&#x00A0;&#x00A0;&#x00A0;initial setup server</tspan><tspan dy="20" dx="7" x="-18">&#x2022;&#x00A0;&#x00A0;&#x00A0;&#x00A0;manajemen user, tambah</tspan><tspan dx="8" dy="17" x="-18">&#x00A0;&#x00A0;&#x00A0;&#x00A0;&#x00A0;&#x00A0;hapus user</tspan></text></g><g transform="translate(0,0)"><g transform="matrix(1,0,0,1,-398,129)"><path style="fill:none;stroke:#333333;stroke-width:3.0;;" d="m0,0.35328137817883515l150.15614994504963,-2.1251702214930273l1.325863892387587,137.83068088597213l-150.74684627948142,-0.4244913863822806z"/><path style="fill:#333333;stroke:none;stroke-width:3.0;;stroke: none;" d="m55.248274,-6.1981l38.0093,-2.40741l-0.603966,2.40741l3.76254,0.531494l-2.13063,2.4458l-1.31318,1.85211l3.61304,0l-2.87453,2.84827l2.21614,2.70691l-40.9795,2.25l0.300789,-2.40662l-2.71546,-0.902466l3.31823,-1.50378l-3.85104,-3.49121l3.36488,-1.28223l-2.0523,-1.42377l1.93569,-1.62451z"/></g><text style="font-weight:Normal; font-size: 12px; text-anchor: start; font-family: arial,helvetica,sans-serif; fill: #333333;" class="" y="155" x="-383"><tspan x="-383" font-weight="bold" font-size="24" dy="14">Nginx</tspan><tspan dy="23" dx="7" x="-383">&#x2022;&#x00A0;&#x00A0;&#x00A0;&#x00A0;vhost</tspan><tspan dy="20" dx="7" x="-383">&#x2022;&#x00A0;&#x00A0;&#x00A0;&#x00A0;reverse proxy</tspan><tspan dy="20" dx="7" x="-383">&#x2022;&#x00A0;&#x00A0;&#x00A0;&#x00A0;https pake lets</tspan><tspan dx="8" dy="17" x="-383">&#x00A0;&#x00A0;&#x00A0;&#x00A0;&#x00A0;&#x00A0;encrypt</tspan></text></g><g transform="translate(0,0)"><path style="fill:none;stroke:#333333;stroke-width:2;;" d="M-35,247 C-139.5,247 -139.5,196  -244,196"/><polyline style="fill:#ffffff;stroke:#333333;stroke-width:2;fill-opacity:0;" points="-226,186 -244,196 -226,206"/><text style="font-weight:Normal; font-size: 12px; text-anchor: middle; font-family: sans-serif; fill: #333333;" class="" y="213" x="-233"/><text style="font-weight:Normal; font-size: 12px; text-anchor: start; font-family: sans-serif; fill: #333333;" class="" y="221" x="-139"/><text style="font-weight:Normal; font-size: 12px; text-anchor: middle; font-family: sans-serif; fill: #333333;" class="" y="258" x="-51"/></g><g transform="translate(0,0)"><g transform="matrix(1,0,0,1,612,-94)"><path style="fill:none;stroke:#333333;stroke-width:3.0;;" d="m0,0.3087940935192781l238.24775791281206,-1.8575561936013127l2.1037040425883045,120.47422477440526l-239.18499609677716,-0.37103691550451195z"/><path style="fill:#333333;stroke:none;stroke-width:3.0;;stroke: none;" d="m99.248274,-6.1981l38.0093,-2.40741l-0.603966,2.40741l3.76254,0.531494l-2.13063,2.4458l-1.31318,1.85211l3.61304,0l-2.87453,2.84827l2.21614,2.70691l-40.9795,2.25l0.300789,-2.40662l-2.71546,-0.902466l3.31823,-1.50378l-3.85104,-3.49121l3.36488,-1.28223l-2.0523,-1.42377l1.93569,-1.62451z"/></g><text style="font-weight:Normal; font-size: 12px; text-anchor: start; font-family: arial,helvetica,sans-serif; fill: #333333;" class="" y="-67" x="627"><tspan x="627" font-weight="bold" font-size="24" dy="14">Git</tspan><tspan dy="20" x="627">pelajari dan praktekkan setiap belajar</tspan><tspan dy="17" x="627">ngoding</tspan><tspan dy="25" x="627">(</tspan><a xlink:href="https://sketchboard.me/FBji2JoICuSr"><tspan>ada mapping nya sendiri</tspan></a></text></g><g transform="translate(0,0)"><g transform="matrix(1,0,0,1,-35,525)"><path style="fill:none;stroke:#333333;stroke-width:3.0;;" d="m0,0.40300246103363413l203.21132292563385,-2.42426825266612l1.794335801031201,157.2290730106645l-204.01073196489818,-0.4842346185397868z"/><path style="fill:#333333;stroke:none;stroke-width:3.0;;stroke: none;" d="m82.248274,-6.1981l38.0093,-2.40741l-0.603966,2.40741l3.76254,0.531494l-2.13063,2.4458l-1.31318,1.85211l3.61304,0l-2.87453,2.84827l2.21614,2.70691l-40.9795,2.25l0.300789,-2.40662l-2.71546,-0.902466l3.31823,-1.50378l-3.85104,-3.49121l3.36488,-1.28223l-2.0523,-1.42377l1.93569,-1.62451z"/></g><text style="font-weight:Normal; font-size: 12px; text-anchor: start; font-family: arial,helvetica,sans-serif; fill: #333333;" class="" y="551" x="-20"><tspan x="-20" font-weight="bold" font-size="36" dy="17">Serverless</tspan><tspan dy="28" dx="7" x="-20">&#x2022;&#x00A0;&#x00A0;&#x00A0;&#x00A0;netlify</tspan><tspan dy="20" dx="7" x="-20">&#x2022;&#x00A0;&#x00A0;&#x00A0;&#x00A0;firebase</tspan><tspan dy="20" dx="7" x="-20">&#x2022;&#x00A0;&#x00A0;&#x00A0;&#x00A0;now</tspan><tspan dy="20" dx="7" x="-20">&#x2022;&#x00A0;&#x00A0;&#x00A0;&#x00A0;glitch</tspan></text></g><g transform="translate(0,0)"><g transform="matrix(1,0,0,1,823,256)"><path style="fill:none;stroke:#333333;stroke-width:3.0;;" d="m576.4726826589596,4.551827099904868c-152.22963468208093,-2.3007747114458184 -410.66719190751445,-4.871985207391823 -505.82289364161846,-4.280547869237866c-53.51808323699422,0.33269851195328476 -60.28859560693641,4.305324100388064 -65.09510092485549,19.887582023746493c5.086043098265896,47.70508090446864 -11.87602901734104,97.30967286378578 -2.0200862196531792,147.34184517155788c1.6284046473988438,11.517462412138894 -1.6037754797687862,20.048276090319938 30.10859387283237,20.48396875086544c76.98814566473989,-0.31102370264564705 42.677395491329484,-2.626008139096283 35.57180427745664,17.82740618864977c51.05138520231214,-14.44465990586636 59.700753294797686,-17.648378882478188 86.60639190751445,-16.361303460978302c25.331029826589596,0.19903865220578063 355.97036994219656,1.3923685466231759 443.17158497109824,-1.681676439105854c11.077308092485548,-0.39047750301265305 21.463952369942195,-5.472413447393429 22.46300797687861,-9.932750067259033c11.634027630057803,-51.94076212344396 8.182599190751445,-128.8287875364679 -2.398889653179191,-160.37718853438662c-5.714504994219653,-8.591553516721838 -12.146680809248554,-13.635420166927505 -42.58439075144509,-12.907244976243673z"/></g><text style="font-weight:Normal; font-size: 12px; text-anchor: start; font-family: arial,helvetica,sans-serif; fill: #333333;" class="" y="287" x="833"><tspan x="833" font-weight="bold" font-size="24" dy="14">Latihan di freecodecamp</tspan><tspan dy="23" dx="7" x="833">&#x2022;&#x00A0;&#x00A0;&#x00A0;&#x00A0;basic html and html5</tspan><tspan dy="20" dx="7" x="833">&#x2022;&#x00A0;&#x00A0;&#x00A0;&#x00A0;basic css</tspan><tspan dy="20" dx="7" x="833">&#x2022;&#x00A0;&#x00A0;&#x00A0;&#x00A0;Responsive Web Design Principles</tspan><tspan dy="20" dx="7" x="833">&#x2022;&#x00A0;&#x00A0;&#x00A0;&#x00A0;basic javascript</tspan><tspan dy="20" dx="7" x="833">&#x2022;&#x00A0;&#x00A0;&#x00A0;&#x00A0;es6</tspan><tspan dy="20" dx="7" x="833">&#x2022;&#x00A0;&#x00A0;&#x00A0;&#x00A0;basic data structures</tspan><tspan dy="20" dx="7" x="833">&#x2022;&#x00A0;&#x00A0;&#x00A0;&#x00A0;lainnya sesuai keinginan</tspan></text></g><g transform="translate(0,0)"><g transform="matrix(1,0,0,1,199,1476)"><path style="fill:none;stroke:#333333;stroke-width:3.0;;" d="m84.80102628540492,29.26881934366494c0,4.810975287874417 -3.664171726540372,8.710332960793401 -8.18497774270603,8.710332960793401l-68.40579338102158,0c-4.520806016165658,0 -8.18497774270603,-3.8993576729189847 -8.18497774270603,-8.710332960793401l0,-18.043706595790123c0,-4.810975287874417 3.664171726540372,-8.710332960793401 8.18497774270603,-8.710332960793401l69.57480214315005,-2.488593724047799c4.521265954039282,0 8.185437680579653,5.143889067438901 8.185437680579653,9.954864355313317l-1.1694840312645443,19.287748531187916z"/></g><text style="font-weight:bold; font-size: 12px; text-anchor: middle; font-family: arial,helvetica,sans-serif; fill: #333333;" class="svg-txt-center" y="1499" x="242">socket</text></g><g transform="translate(0,0)"><path style="fill:none;stroke:#333333;stroke-width:2;;" d="M197,1391 C197,1431.5 242,1431.5  242,1472"/><polyline style="fill:#ffffff;stroke:#333333;stroke-width:2;fill-opacity:0;" points="231,1455 242,1472 251,1454"/><text style="font-weight:Normal; font-size: 12px; text-anchor: middle; font-family: sans-serif; fill: #333333;" class="" y="1452" x="247"/><text style="font-weight:Normal; font-size: 12px; text-anchor: start; font-family: sans-serif; fill: #333333;" class="" y="1431" x="219"/><text style="font-weight:Normal; font-size: 12px; text-anchor: middle; font-family: sans-serif; fill: #333333;" class="" y="1395" x="216"/></g><g transform="translate(0,0)"><path style="fill:none;stroke:#333333;stroke-width:2;;" d="M1287,1493 C1351.5,1493 1351.5,1479  1416,1479"/><polyline style="fill:#ffffff;stroke:#333333;stroke-width:2;fill-opacity:0;" points="1398,1489 1416,1479 1398,1469"/><text style="font-weight:Normal; font-size: 12px; text-anchor: middle; font-family: sans-serif; fill: #333333;" class="" y="1466" x="1401"/><text style="font-weight:Normal; font-size: 12px; text-anchor: start; font-family: sans-serif; fill: #333333;" class="" y="1486" x="1351"/><text style="font-weight:Normal; font-size: 12px; text-anchor: middle; font-family: sans-serif; fill: #333333;" class="" y="1477" x="1298"/></g><g transform="translate(0,0)"><g transform="matrix(1,0,0,1,866,1556)"><path style="fill:none;stroke:#333333;stroke-width:3.0;;" d="m3.3392142298611938,4.471208457081191c6.174854722771725,-8.200371144192687 25.649084493567422,-4.825707265909229 26.6001286665833,7.715596059942234c0.9492023123825767,12.540821373630223 -9.499819957181447,19.29484242682779 -20.425273943811572,13.988112418962052c-10.923612125996828,-5.302977665571797 -11.648661129282797,-14.43308054474863 -6.174854722771725,-21.703708478904286z"/></g><text style="font-weight:bold; font-size: 12px; text-anchor: middle; font-family: arial,helvetica,sans-serif; fill: #333333;" class="svg-txt-center" y="1599" x="881">js framework</text></g><g transform="translate(0,0)"><g transform="matrix(1,0,0,1,532,580)"><path style="fill:none;stroke:#333333;stroke-width:3.0;;" d="m0,0.2904757998359311l214.22277392160413,-1.7473621821164889l1.8915658198062906,113.32744872846595l-215.06550069206014,-0.3490262510254307z"/><path style="fill:#333333;stroke:none;stroke-width:3.0;;stroke: none;" d="m87.248274,-6.1981l38.0093,-2.40741l-0.603966,2.40741l3.76254,0.531494l-2.13063,2.4458l-1.31318,1.85211l3.61304,0l-2.87453,2.84827l2.21614,2.70691l-40.9795,2.25l0.300789,-2.40662l-2.71546,-0.902466l3.31823,-1.50378l-3.85104,-3.49121l3.36488,-1.28223l-2.0523,-1.42377l1.93569,-1.62451z"/></g><text style="font-weight:Normal; font-size: 12px; text-anchor: start; font-family: arial,helvetica,sans-serif; fill: #333333;" class="" y="606" x="547"><tspan x="547" font-weight="bold" font-size="18" dy="8">Pengetahuan dasar</tspan><tspan dy="22" dx="7" x="547">&#x2022;&#x00A0;&#x00A0;&#x00A0;&#x00A0;html css js (inspect element)</tspan><tspan dy="20" dx="7" x="547">&#x2022;&#x00A0;&#x00A0;&#x00A0;&#x00A0;cara kerja web</tspan><tspan dy="20" dx="7" x="547">&#x2022;&#x00A0;&#x00A0;&#x00A0;&#x00A0;http request</tspan></text></g><g transform="translate(0,0)"><path style="fill:none;stroke:#333333;stroke-width:2;;" d="M640,557 C640,567.5 639,567.5  639,578"/><text style="font-weight:Normal; font-size: 12px; text-anchor: middle; font-family: sans-serif; fill: #333333;" class="" y="562" x="653"/><text style="font-weight:Normal; font-size: 12px; text-anchor: start; font-family: sans-serif; fill: #333333;" class="" y="567" x="639"/><text style="font-weight:Normal; font-size: 12px; text-anchor: middle; font-family: sans-serif; fill: #333333;" class="" y="570" x="654"/></g><g transform="translate(0,0)"><g transform="matrix(1,0,0,1,843,557)"><path style="fill:none;stroke:#333333;stroke-width:3.0;;" d="m0,0.44487284659557014l150.15614994504963,-2.6761402789171456l1.325863892387587,173.5645611156686l-150.74684627948142,-0.5345447087776867z"/><path style="fill:#333333;stroke:none;stroke-width:3.0;;stroke: none;" d="m55.248274,-6.1981l38.0093,-2.40741l-0.603966,2.40741l3.76254,0.531494l-2.13063,2.4458l-1.31318,1.85211l3.61304,0l-2.87453,2.84827l2.21614,2.70691l-40.9795,2.25l0.300789,-2.40662l-2.71546,-0.902466l3.31823,-1.50378l-3.85104,-3.49121l3.36488,-1.28223l-2.0523,-1.42377l1.93569,-1.62451z"/></g><text style="font-weight:Normal; font-size: 12px; text-anchor: start; font-family: arial,helvetica,sans-serif; fill: #333333;" class="" y="584" x="858"><tspan x="858" font-weight="bold" font-size="18" dy="8">Basic</tspan><tspan font-weight="bold" font-size="18" dy="18" x="858">Javascript</tspan><tspan dy="22" dx="7" x="858">&#x2022;&#x00A0;&#x00A0;&#x00A0;&#x00A0;hello world</tspan><tspan dy="20" dx="7" x="858">&#x2022;&#x00A0;&#x00A0;&#x00A0;&#x00A0;basic variabel</tspan><tspan dy="20" dx="7" x="858">&#x2022;&#x00A0;&#x00A0;&#x00A0;&#x00A0;fungsi</tspan><tspan dy="20" dx="7" x="858">&#x2022;&#x00A0;&#x00A0;&#x00A0;&#x00A0;object</tspan><tspan dy="20" dx="7" x="858">&#x2022;&#x00A0;&#x00A0;&#x00A0;&#x00A0;async dan ajax</tspan></text></g><g transform="translate(0,0)"><g transform="matrix(1,0,0,1,525,502)"><path style="fill:none;stroke:#333333;stroke-width:3.0;;" d="m226.79344239119922,40.82230066353268c0,6.710044480456423 -9.799529036096345,12.148622287422375 -21.890056753748684,12.148622287422375l-182.9457264841275,0c-12.090527717652341,0 -21.890056753748684,-5.438577806965952 -21.890056753748684,-12.148622287422375l0,-25.166222357286223c0,-6.710044480456423 9.799529036096345,-12.148622287422375 21.890056753748684,-12.148622287422375l186.0721452665641,-3.470933351961403c12.091757784058546,0 21.891286820154892,7.1743715940595205 21.891286820154892,13.884416074515942l-3.12768985105634,26.90133347770946z"/></g><text style="font-weight:bold; font-size: 18px; text-anchor: middle; font-family: arial,helvetica,sans-serif; fill: #333333;" class="svg-txt-center" y="536" x="640">Web Programming</text></g><g transform="translate(0,0)"><path style="fill:none;stroke:#333333;stroke-width:2;;" d="M748,635 C794.5,635 794.5,642  841,642"/><text style="font-weight:Normal; font-size: 12px; text-anchor: middle; font-family: sans-serif; fill: #333333;" class="" y="626" x="826"/><text style="font-weight:Normal; font-size: 12px; text-anchor: start; font-family: sans-serif; fill: #333333;" class="" y="638" x="794"/><text style="font-weight:Normal; font-size: 12px; text-anchor: middle; font-family: sans-serif; fill: #333333;" class="" y="621" x="762"/></g><g transform="translate(0,0)"><g transform="matrix(1,0,0,1,886,790)"><path style="fill:none;stroke:#333333;stroke-width:3.0;;" d="m69.02409116253888,29.26881934366494c0,4.810975287874417 -2.9824653588119303,8.710332960793401 -6.662191185923512,8.710332960793401l-55.67913414734314,0c-3.6797258271115814,0 -6.662191185923512,-3.8993576729189847 -6.662191185923512,-8.710332960793401l0,-18.043706595790123c0,-4.810975287874417 2.9824653588119303,-8.710332960793401 6.662191185923512,-8.710332960793401l56.63065290721515,-2.488593724047799c3.6801001951482526,0 6.662565553960183,5.143889067438901 6.662565553960183,9.954864355313317l-0.9519056068432337,19.287748531187916z"/></g><text style="font-weight:bold; font-size: 12px; text-anchor: middle; font-family: arial,helvetica,sans-serif; fill: #333333;" class="svg-txt-center" y="813" x="921">es6</text></g><g transform="translate(0,0)"><path style="fill:none;stroke:#333333;stroke-width:2;;" d="M918,729 C918,757.5 921,757.5  921,786"/><polyline style="fill:#ffffff;stroke:#333333;stroke-width:2;fill-opacity:0;" points="910,768 921,786 930,768"/><text style="font-weight:Normal; font-size: 12px; text-anchor: middle; font-family: sans-serif; fill: #333333;" class="" y="772" x="934"/><text style="font-weight:Normal; font-size: 12px; text-anchor: start; font-family: sans-serif; fill: #333333;" class="" y="757" x="919"/><text style="font-weight:Normal; font-size: 12px; text-anchor: middle; font-family: sans-serif; fill: #333333;" class="" y="741" x="932"/></g><g transform="translate(0,0)"><g transform="matrix(1,0,0,1,1260,1055)"><path style="fill:none;stroke:#333333;stroke-width:3.0;;" d="m98.6058445179127,29.26881934366494c0,4.810975287874417 -4.260664798302758,8.710332960793401 -9.517415979890732,8.710332960793401l-79.54162021049021,0c-5.256751181587974,0 -9.517415979890732,-3.8993576729189847 -9.517415979890732,-8.710332960793401l0,-18.043706595790123c0,-4.810975287874417 4.260664798302758,-8.710332960793401 9.517415979890732,-8.710332960793401l80.90093272459309,-2.488593724047799c5.257285993068933,0 9.51795079137169,5.143889067438901 9.51795079137169,9.954864355313317l-1.359865152633191,19.287748531187916z"/></g><text style="font-weight:bold; font-size: 12px; text-anchor: middle; font-family: arial,helvetica,sans-serif; fill: #333333;" class="svg-txt-center" y="1078" x="1310">static site</text></g><g transform="translate(0,0)"><g transform="matrix(1,0,0,1,1248,1135)"><path style="fill:none;stroke:#333333;stroke-width:3.0;;" d="m148.89482522204818,29.26881934366494c0,4.810975287874417 -6.433603845437165,8.710332960793401 -14.371298129635006,8.710332960793401l-120.10784651784022,0c-7.937694284197841,0 -14.371298129635006,-3.8993576729189847 -14.371298129635006,-8.710332960793401l0,-18.043706595790123c0,-4.810975287874417 6.433603845437165,-8.710332960793401 14.371298129635006,-8.710332960793401l122.16040841413556,-2.488593724047799c7.938501849534089,0 14.372105694971253,5.143889067438901 14.372105694971253,9.954864355313317l-2.053396380476119,19.287748531187916z"/></g><text style="font-weight:bold; font-size: 12px; text-anchor: middle; font-family: arial,helvetica,sans-serif; fill: #333333;" class="svg-txt-center" y="1158" x="1323">PWA (mobile web)</text></g><g transform="translate(0,0)"><path style="fill:none;stroke:#333333;stroke-width:2;;" d="M970,995 C1107,995 1107,1154  1244,1154"/><polyline style="fill:#ffffff;stroke:#333333;stroke-width:2;fill-opacity:0;" points="1226,1162 1244,1154 1227,1142"/><text style="font-weight:Normal; font-size: 12px; text-anchor: middle; font-family: sans-serif; fill: #333333;" class="" y="1134" x="1239"/><text style="font-weight:Normal; font-size: 12px; text-anchor: start; font-family: sans-serif; fill: #333333;" class="" y="1074" x="1107"/><text style="font-weight:Normal; font-size: 12px; text-anchor: middle; font-family: sans-serif; fill: #333333;" class="" y="988" x="989"/></g><g transform="translate(0,0)"><path style="fill:none;stroke:#333333;stroke-width:2;;" d="M970,995 C1113,995 1113,1074  1256,1074"/><polyline style="fill:#ffffff;stroke:#333333;stroke-width:2;fill-opacity:0;" points="1238,1083 1256,1074 1238,1063"/><text style="font-weight:Normal; font-size: 12px; text-anchor: middle; font-family: sans-serif; fill: #333333;" class="" y="1055" x="1245"/><text style="font-weight:Normal; font-size: 12px; text-anchor: start; font-family: sans-serif; fill: #333333;" class="" y="1034" x="1113"/><text style="font-weight:Normal; font-size: 12px; text-anchor: middle; font-family: sans-serif; fill: #333333;" class="" y="983" x="986"/></g><g transform="translate(0,0)"><rect style="fill: #000000;fill-opacity: 0;stroke-opacity:0;stroke-width: 1;stroke:%stroke%;" rx="4" height="55" width="100" y="1047" x="1372"/><text style="font-weight:Normal; font-size: 12px; text-anchor: start; font-family: arial,helvetica,sans-serif; fill: #333333;" class="" y="1068" x="1372"><tspan dx="7" x="1372">&#x2022;&#x00A0;&#x00A0;&#x00A0;&#x00A0;hugo</tspan><tspan dy="20" dx="7" x="1372">&#x2022;&#x00A0;&#x00A0;&#x00A0;&#x00A0;hexo</tspan></text></g><g transform="translate(0,0)"><path style="fill:none;stroke:#333333;stroke-width:2;;" d="M1362,1074 C1366,1074 1366,1074  1370,1074"/><text style="font-weight:Normal; font-size: 12px; text-anchor: middle; font-family: sans-serif; fill: #333333;" class="" y="1059" x="1354"/><text style="font-weight:Normal; font-size: 12px; text-anchor: start; font-family: sans-serif; fill: #333333;" class="" y="1074" x="1366"/><text style="font-weight:Normal; font-size: 12px; text-anchor: middle; font-family: sans-serif; fill: #333333;" class="" y="1059" x="1376"/></g><g transform="translate(0,0)"><g transform="matrix(1,0,0,1,1270,977)"><path style="fill:none;stroke:#333333;stroke-width:3.0;;" d="m127.20153942810737,29.26881934366494c0,4.810975287874417 -5.496257589810558,8.710332960793401 -12.277466614059044,8.710332960793401l-102.60869007153237,0c-6.781209024248486,0 -12.277466614059044,-3.8993576729189847 -12.277466614059044,-8.710332960793401l0,-18.043706595790123c0,-4.810975287874417 5.496257589810558,-8.710332960793401 12.277466614059044,-8.710332960793401l104.36220321472507,-2.488593724047799c6.781898931058923,0 12.27815652086948,5.143889067438901 12.27815652086948,9.954864355313317l-1.7542260468968165,19.287748531187916z"/></g><text style="font-weight:bold; font-size: 12px; text-anchor: middle; font-family: arial,helvetica,sans-serif; fill: #333333;" class="svg-txt-center" y="1000" x="1334">css framework</text></g><g transform="translate(0,0)"><path style="fill:none;stroke:#333333;stroke-width:2;;" d="M970,995 C1118,995 1118,996  1266,996"/><polyline style="fill:#ffffff;stroke:#333333;stroke-width:2;fill-opacity:0;" points="1248,1005 1266,996 1248,985"/><text style="font-weight:Normal; font-size: 12px; text-anchor: middle; font-family: sans-serif; fill: #333333;" class="" y="981" x="1252"/><text style="font-weight:Normal; font-size: 12px; text-anchor: start; font-family: sans-serif; fill: #333333;" class="" y="995" x="1118"/><text style="font-weight:Normal; font-size: 12px; text-anchor: middle; font-family: sans-serif; fill: #333333;" class="" y="980" x="983"/></g><g transform="translate(0,0)"><g transform="matrix(1,0,0,1,1165,1210)"><path style="fill:none;stroke:#333333;stroke-width:3.0;;" d="m93.67555229201706,29.26881934366494c0,4.810975287874417 -4.04763155838762,8.710332960793401 -9.041545180896195,8.710332960793401l-75.5645391999657,0c-4.9939136225085745,0 -9.041545180896195,-3.8993576729189847 -9.041545180896195,-8.710332960793401l0,-18.043706595790123c0,-4.810975287874417 4.04763155838762,-8.710332960793401 9.041545180896195,-8.710332960793401l76.85588608836342,-2.488593724047799c4.994421693415486,0 9.042053251803106,5.143889067438901 9.042053251803106,9.954864355313317l-1.2918718950015315,19.287748531187916z"/></g><text style="font-weight:bold; font-size: 12px; text-anchor: middle; font-family: arial,helvetica,sans-serif; fill: #333333;" class="svg-txt-center" y="1233" x="1212">JS DOM</text></g><g transform="translate(0,0)"><g transform="matrix(1,0,0,1,448,1038)"><path style="fill:none;stroke:#333333;stroke-width:3.0;;" d="m0,0.25645611156685805l159.1655189417526,-1.5427161607875308l1.405415725930842,100.05486464315013l-159.79165705625027,-0.30814930270713703z"/><path style="fill:#333333;stroke:none;stroke-width:3.0;;stroke: none;" d="m60.248274,-6.1981l38.0093,-2.40741l-0.603966,2.40741l3.76254,0.531494l-2.13063,2.4458l-1.31318,1.85211l3.61304,0l-2.87453,2.84827l2.21614,2.70691l-40.9795,2.25l0.300789,-2.40662l-2.71546,-0.902466l3.31823,-1.50378l-3.85104,-3.49121l3.36488,-1.28223l-2.0523,-1.42377l1.93569,-1.62451z"/></g><text style="font-weight:Normal; font-size: 12px; text-anchor: start; font-family: arial,helvetica,sans-serif; fill: #333333;" class="" y="1064" x="463"><tspan x="463" font-weight="bold" font-size="24" dy="14">NodeJS</tspan><tspan dy="23" dx="7" x="463">&#x2022;&#x00A0;&#x00A0;&#x00A0;&#x00A0;basic</tspan><tspan dy="20" dx="7" x="463">&#x2022;&#x00A0;&#x00A0;&#x00A0;&#x00A0;node module, npm</tspan></text></g><g transform="translate(0,0)"><g transform="matrix(1,0,0,1,47,917)"><path style="fill:none;stroke:#333333;stroke-width:3.0;;" d="m282.0127153212303,57.7674065993387c0,9.495345962910033 -12.185501323145889,17.19144663314487 -27.219809702487495,17.19144663314487l-227.489033802002,0c-15.034308379341606,0 -27.219809702487495,-7.696100670234839 -27.219809702487495,-17.19144663314487l0,-35.6125788074805c0,-9.495345962910033 12.185501323145889,-17.19144663314487 27.219809702487495,-17.19144663314487l231.37666759233622,-4.911698139568024c15.035837940177148,0 27.22133926332304,10.152412633103095 27.22133926332304,19.647758596013126l-3.8892143365309266,38.06792473260773z"/></g><text style="font-weight:bold; font-size: 30px; text-anchor: middle; font-family: arial,helvetica,sans-serif; fill: #333333;" class="svg-txt-center" y="968" x="190">Backend Dev</text></g><g transform="translate(0,0)"><path style="fill:none;stroke:#333333;stroke-width:2;;" d="M970,995 C1065.5,995 1065.5,1229  1161,1229"/><polyline style="fill:#ffffff;stroke:#333333;stroke-width:2;fill-opacity:0;" points="1142,1236 1161,1229 1145,1216"/><text style="font-weight:Normal; font-size: 12px; text-anchor: middle; font-family: sans-serif; fill: #333333;" class="" y="1207" x="1163"/><text style="font-weight:Normal; font-size: 12px; text-anchor: start; font-family: sans-serif; fill: #333333;" class="" y="1112" x="1065"/><text style="font-weight:Normal; font-size: 12px; text-anchor: middle; font-family: sans-serif; fill: #333333;" class="" y="995" x="989"/></g><g transform="translate(0,0)"><g transform="matrix(1,0,0,1,1196,1474)"><path style="fill:none;stroke:#333333;stroke-width:3.0;;" d="m87.75920162094229,29.26881934366494c0,4.810975287874417 -3.791991670489455,8.710332960793401 -8.470500222102752,8.710332960793401l-70.79204198733629,0c-4.678508551613297,0 -8.470500222102752,-3.8993576729189847 -8.470500222102752,-8.710332960793401l0,-18.043706595790123c0,-4.810975287874417 3.791991670489455,-8.710332960793401 8.470500222102752,-8.710332960793401l72.00183012488785,-2.488593724047799c4.6789845338313505,0 8.470976204320804,5.143889067438901 8.470976204320804,9.954864355313317l-1.21027998584354,19.287748531187916z"/></g><text style="font-weight:bold; font-size: 12px; text-anchor: middle; font-family: arial,helvetica,sans-serif; fill: #333333;" class="svg-txt-center" y="1497" x="1240">Vue JS</text></g><g transform="translate(0,0)"><g transform="matrix(1,0,0,1,1084,1295)"><path style="fill:none;stroke:#333333;stroke-width:3.0;;" d="m0,0.2930926989335521l249.25920890878237,-1.7631041837571784l2.200934061363394,114.34841673502874l-250.23976482393914,-0.3521706316652995z"/><path style="fill:#333333;stroke:none;stroke-width:3.0;;stroke: none;" d="m105.248274,-6.1981l38.0093,-2.40741l-0.603966,2.40741l3.76254,0.531494l-2.13063,2.4458l-1.31318,1.85211l3.61304,0l-2.87453,2.84827l2.21614,2.70691l-40.9795,2.25l0.300789,-2.40662l-2.71546,-0.902466l3.31823,-1.50378l-3.85104,-3.49121l3.36488,-1.28223l-2.0523,-1.42377l1.93569,-1.62451z"/></g><text style="font-weight:Normal; font-size: 12px; text-anchor: start; font-family: arial,helvetica,sans-serif; fill: #333333;" class="" y="1322" x="1099"><tspan x="1099" font-weight="bold" font-size="18" dy="8">JS dan API browser</tspan><tspan dy="22" dx="7" x="1099">&#x2022;&#x00A0;&#x00A0;&#x00A0;&#x00A0;fetch untuk ajax</tspan><tspan dy="20" dx="7" x="1099">&#x2022;&#x00A0;&#x00A0;&#x00A0;&#x00A0;localstorage</tspan><tspan dy="20" dx="7" x="1099">&#x2022;&#x00A0;&#x00A0;&#x00A0;&#x00A0;geolocation (https)</tspan></text></g><g transform="translate(0,0)"><g transform="matrix(1,0,0,1,686,958)"><path style="fill:none;stroke:#333333;stroke-width:3.0;;" d="m278.0684815405138,57.7674065993387c0,9.495345962910033 -12.01507473121378,17.19144663314487 -26.839113063291865,17.19144663314487l-224.3073689935824,0c-14.824038332078088,0 -26.839113063291865,-7.696100670234839 -26.839113063291865,-17.19144663314487l0,-35.6125788074805c0,-9.495345962910033 12.01507473121378,-17.19144663314487 26.839113063291865,-17.19144663314487l228.1406302833525,-4.911698139568024c14.825546500454392,0 26.84062123166817,10.152412633103095 26.84062123166817,19.647758596013126l-3.834819730425599,38.06792473260773z"/></g><text style="font-weight:bold; font-size: 30px; text-anchor: middle; font-family: arial,helvetica,sans-serif; fill: #333333;" class="svg-txt-center" y="1009" x="827">Frontend dev</text></g><g transform="translate(0,0)"><g transform="matrix(1,0,0,1,1172,1643)"><path style="fill:none;stroke:#333333;stroke-width:3.0;;" d="m95.64766918237531,29.26881934366494c0,4.810975287874417 -4.132844854353675,8.710332960793401 -9.23189350049401,8.710332960793401l-77.1553716041755,0c-5.099048646140335,0 -9.23189350049401,-3.8993576729189847 -9.23189350049401,-8.710332960793401l0,-18.043706595790123c0,-4.810975287874417 4.132844854353675,-8.710332960793401 9.23189350049401,-8.710332960793401l78.47390474285528,-2.488593724047799c5.099567413276865,0 9.23241226763054,5.143889067438901 9.23241226763054,9.954864355313317l-1.3190691980541953,19.287748531187916z"/></g><text style="font-weight:bold; font-size: 12px; text-anchor: middle; font-family: arial,helvetica,sans-serif; fill: #333333;" class="svg-txt-center" y="1666" x="1220">React JS</text></g><g transform="translate(0,0)"><g transform="matrix(1,0,0,1,1420,1460)"><path style="fill:none;stroke:#333333;stroke-width:3.0;;" d="m85.78708473058404,29.26881934366494c0,4.810975287874417 -3.7067783745233993,8.710332960793401 -8.280151902504937,8.710332960793401l-69.20120958312647,0c-4.573373527981537,0 -8.280151902504937,-3.8993576729189847 -8.280151902504937,-8.710332960793401l0,-18.043706595790123c0,-4.810975287874417 3.7067783745233993,-8.710332960793401 8.280151902504937,-8.710332960793401l70.38381147039597,-2.488593724047799c4.573838813969971,0 8.28061718849337,5.143889067438901 8.28061718849337,9.954864355313317l-1.1830826827908762,19.287748531187916z"/></g><text style="font-weight:bold; font-size: 12px; text-anchor: middle; font-family: arial,helvetica,sans-serif; fill: #333333;" class="svg-txt-center" y="1483" x="1463">NuxtJS</text></g><g transform="translate(0,0)"><path style="fill:none;stroke:#333333;stroke-width:2;;" d="M827,1035 C827,1293.5 881,1293.5  881,1552"/><polyline style="fill:#ffffff;stroke:#333333;stroke-width:2;fill-opacity:0;" points="870,1534 881,1552 890,1534"/><text style="font-weight:Normal; font-size: 12px; text-anchor: middle; font-family: sans-serif; fill: #333333;" class="" y="1537" x="893"/><text style="font-weight:Normal; font-size: 12px; text-anchor: start; font-family: sans-serif; fill: #333333;" class="" y="1293" x="854"/><text style="font-weight:Normal; font-size: 12px; text-anchor: middle; font-family: sans-serif; fill: #333333;" class="" y="1046" x="842"/></g><g transform="translate(0,0)"><path style="fill:none;stroke:#333333;stroke-width:2;;" d="M898,1570 C1045,1570 1045,1493  1192,1493"/><polyline style="fill:#ffffff;stroke:#333333;stroke-width:2;fill-opacity:0;" points="1174,1503 1192,1493 1174,1483"/><text style="font-weight:Normal; font-size: 12px; text-anchor: middle; font-family: sans-serif; fill: #333333;" class="" y="1483" x="1175"/><text style="font-weight:Normal; font-size: 12px; text-anchor: start; font-family: sans-serif; fill: #333333;" class="" y="1531" x="1045"/><text style="font-weight:Normal; font-size: 12px; text-anchor: middle; font-family: sans-serif; fill: #333333;" class="" y="1552" x="907"/></g><g transform="translate(0,0)"><path style="fill:none;stroke:#333333;stroke-width:2;;" d="M898,1570 C1033,1570 1033,1662  1168,1662"/><polyline style="fill:#ffffff;stroke:#333333;stroke-width:2;fill-opacity:0;" points="1150,1671 1168,1662 1151,1651"/><text style="font-weight:Normal; font-size: 12px; text-anchor: middle; font-family: sans-serif; fill: #333333;" class="" y="1642" x="1158"/><text style="font-weight:Normal; font-size: 12px; text-anchor: start; font-family: sans-serif; fill: #333333;" class="" y="1616" x="1033"/><text style="font-weight:Normal; font-size: 12px; text-anchor: middle; font-family: sans-serif; fill: #333333;" class="" y="1559" x="915"/></g><g transform="translate(0,0)"><path style="fill:none;stroke:#333333;stroke-width:2;;" d="M970,995 C1025,995 1025,1351  1080,1351"/><polyline style="fill:#ffffff;stroke:#333333;stroke-width:2;fill-opacity:0;" points="1060,1355 1080,1351 1066,1336"/><text style="font-weight:Normal; font-size: 12px; text-anchor: middle; font-family: sans-serif; fill: #333333;" class="" y="1331" x="1091"/><text style="font-weight:Normal; font-size: 12px; text-anchor: start; font-family: sans-serif; fill: #333333;" class="" y="1173" x="1025"/><text style="font-weight:Normal; font-size: 12px; text-anchor: middle; font-family: sans-serif; fill: #333333;" class="" y="1003" x="988"/></g><g transform="translate(0,0)"><path style="fill:none;stroke:#333333;stroke-width:2;;" d="M307,1107 C376.5,1107 376.5,1087  446,1087"/><text style="font-weight:Normal; font-size: 12px; text-anchor: middle; font-family: sans-serif; fill: #333333;" class="" y="1075" x="428"/><text style="font-weight:Normal; font-size: 12px; text-anchor: start; font-family: sans-serif; fill: #333333;" class="" y="1097" x="376"/><text style="font-weight:Normal; font-size: 12px; text-anchor: middle; font-family: sans-serif; fill: #333333;" class="" y="1091" x="317"/></g><g transform="translate(0,0)"><g transform="matrix(1,0,0,1,70,1019)"><path style="fill:none;stroke:#333333;stroke-width:3.0;;" d="m0,0.38730106644790807l235.24463491391109,-2.3298162428219853l2.077186764740553,151.10326497128796l-236.17005917118755,-0.46536833470057426z"/><path style="fill:#333333;stroke:none;stroke-width:3.0;;stroke: none;" d="m98.248274,-6.1981l38.0093,-2.40741l-0.603966,2.40741l3.76254,0.531494l-2.13063,2.4458l-1.31318,1.85211l3.61304,0l-2.87453,2.84827l2.21614,2.70691l-40.9795,2.25l0.300789,-2.40662l-2.71546,-0.902466l3.31823,-1.50378l-3.85104,-3.49121l3.36488,-1.28223l-2.0523,-1.42377l1.93569,-1.62451z"/></g><text style="font-weight:Normal; font-size: 12px; text-anchor: start; font-family: arial,helvetica,sans-serif; fill: #333333;" class="" y="1045" x="85"><tspan x="85" font-weight="bold" font-size="24" dy="14">Bahasa</tspan><tspan font-weight="bold" font-size="24" dy="24" x="85">pemrograman</tspan><tspan dy="20" x="85">pelajari yang kamu sukai.</tspan><tspan dy="25" x="85">rekomendasi </tspan><tspan font-weight="bold">javascript</tspan><tspan> atau </tspan><tspan font-weight="bold">python</tspan><a xlink:href="https://youtu.be/wgiW1uFZYr8"><tspan dy="25" x="85">video ini mungkin membantu</tspan></a></text></g><g transform="translate(0,0)"><path style="fill:none;stroke:#333333;stroke-width:2;;" d="M190,994 C190,1005.5 187,1005.5  187,1017"/><text style="font-weight:Normal; font-size: 12px; text-anchor: middle; font-family: sans-serif; fill: #333333;" class="" y="1002" x="203"/><text style="font-weight:Normal; font-size: 12px; text-anchor: start; font-family: sans-serif; fill: #333333;" class="" y="1005" x="188"/><text style="font-weight:Normal; font-size: 12px; text-anchor: middle; font-family: sans-serif; fill: #333333;" class="" y="1008" x="203"/></g><g transform="translate(0,0)"><g transform="matrix(1,0,0,1,124,1241)"><path style="fill:none;stroke:#333333;stroke-width:3.0;;" d="m2.893985665879701,3.8324643917838785c5.351540759735495,-7.02888955216516 22.229206561091765,-4.136320513636482 23.05344484437219,6.613368051379058c0.8226420040648997,10.74927546311162 -8.233177296223921,16.538436365852387 -17.701904084636695,11.989810644824615c-9.46713050919725,-4.545409427632968 -10.09550631204509,-12.371211895498824 -5.351540759735495,-18.603178696203674z"/></g></g><g transform="translate(0,0)"><path style="fill:none;stroke:#333333;stroke-width:2;;" d="M187,1169 C187,1204 137,1204  137,1239"/><text style="font-weight:Normal; font-size: 12px; text-anchor: middle; font-family: sans-serif; fill: #333333;" class="" y="1233" x="158"/><text style="font-weight:Normal; font-size: 12px; text-anchor: start; font-family: sans-serif; fill: #333333;" class="" y="1204" x="162"/><text style="font-weight:Normal; font-size: 12px; text-anchor: middle; font-family: sans-serif; fill: #333333;" class="" y="1188" x="191"/></g><g transform="translate(0,0)"><rect style="fill: #ffffff;fill-opacity: 1;stroke-opacity:0;stroke-width: 1;stroke:%stroke%;" rx="4" height="39" width="173" y="1200" x="89"/><text style="font-weight:Normal; font-size: 12px; text-anchor: start; font-family: arial,helvetica,sans-serif; fill: #333333;" class="" y="1200" x="89"><tspan x="89" alignment-baseline="before-edge" font-weight="bold" font-size="18">Ngoprek</tspan><tspan alignment-baseline="before-edge" dy="24" x="89">dengan bahasa yang kamu sukai</tspan></text></g><g transform="translate(0,0)"><path style="fill:none;stroke:#333333;stroke-width:2;;" d="M621,693 C621,823.5 827,823.5  827,954"/><polyline style="fill:#ffffff;stroke:#333333;stroke-width:2;fill-opacity:0;" points="815,937 827,954 835,935"/><text style="font-weight:Normal; font-size: 12px; text-anchor: middle; font-family: sans-serif; fill: #333333;" class="" y="934" x="828"/><text style="font-weight:Normal; font-size: 12px; text-anchor: start; font-family: sans-serif; fill: #333333;" class="" y="823" x="724"/><text style="font-weight:Normal; font-size: 12px; text-anchor: middle; font-family: sans-serif; fill: #333333;" class="" y="694" x="640"/></g><g transform="translate(0,0)"><path style="fill:none;stroke:#333333;stroke-width:2;;" d="M639,189 C639,108.5 731,108.5  731,28"/><polyline style="fill:#ffffff;stroke:#333333;stroke-width:2;fill-opacity:0;" points="739,45 731,28 720,44"/><text style="font-weight:Normal; font-size: 12px; text-anchor: middle; font-family: sans-serif; fill: #333333;" class="" y="32" x="710"/><text style="font-weight:Normal; font-size: 12px; text-anchor: start; font-family: sans-serif; fill: #333333;" class="" y="108" x="685"/><text style="font-weight:Normal; font-size: 12px; text-anchor: middle; font-family: sans-serif; fill: #333333;" class="" y="169" x="631"/></g><g transform="translate(0,0)"><path style="fill:none;stroke:#333333;stroke-width:2;;" d="M639,268 C639,383 640,383  640,498"/><polyline style="fill:#ffffff;stroke:#333333;stroke-width:2;fill-opacity:0;" points="629,480 640,498 649,480"/><text style="font-weight:Normal; font-size: 12px; text-anchor: middle; font-family: sans-serif; fill: #333333;" class="" y="484" x="653"/><text style="font-weight:Normal; font-size: 12px; text-anchor: start; font-family: sans-serif; fill: #333333;" class="" y="383" x="639"/><text style="font-weight:Normal; font-size: 12px; text-anchor: middle; font-family: sans-serif; fill: #333333;" class="" y="280" x="653"/></g><g transform="translate(0,0)"><path style="fill:none;stroke:#333333;stroke-width:2;;" d="M494,228 C336.5,228 336.5,247  179,247"/><polyline style="fill:#ffffff;stroke:#333333;stroke-width:2;fill-opacity:0;" points="196,236 179,247 196,256"/><text style="font-weight:Normal; font-size: 12px; text-anchor: middle; font-family: sans-serif; fill: #333333;" class="" y="260" x="192"/><text style="font-weight:Normal; font-size: 12px; text-anchor: start; font-family: sans-serif; fill: #333333;" class="" y="237" x="336"/><text style="font-weight:Normal; font-size: 12px; text-anchor: middle; font-family: sans-serif; fill: #333333;" class="" y="242" x="481"/></g><g transform="translate(0,0)"><path style="fill:none;stroke:#333333;stroke-width:2;;" d="M621,693 C621,823.5 479,954  337,954"/><polyline style="fill:#ffffff;stroke:#333333;stroke-width:2;fill-opacity:0;" points="353,943 337,954 354,963"/><text style="font-weight:Normal; font-size: 12px; text-anchor: middle; font-family: sans-serif; fill: #333333;" class="" y="954" x="356"/><text style="font-weight:Normal; font-size: 12px; text-anchor: start; font-family: sans-serif; fill: #333333;" class="" y="872" x="532"/><text style="font-weight:Normal; font-size: 12px; text-anchor: middle; font-family: sans-serif; fill: #333333;" class="" y="713" x="621"/></g><g transform="translate(0,0)"><g transform="matrix(1,0,0,1,-112,1409)"><path style="fill:none;stroke:#333333;stroke-width:3.0;;" d="m99.59190296309183,29.26881934366494c0,4.810975287874417 -4.303271446285786,8.710332960793401 -9.61259013968964,8.710332960793401l-80.33703641259511,0c-5.309318693403854,0 -9.61259013968964,-3.8993576729189847 -9.61259013968964,-8.710332960793401l0,-18.043706595790123c0,-4.810975287874417 4.303271446285786,-8.710332960793401 9.61259013968964,-8.710332960793401l81.70994205183901,-2.488593724047799c5.309858852999622,0 9.613130299285409,5.143889067438901 9.613130299285409,9.954864355313317l-1.373463804159523,19.287748531187916z"/></g><text style="font-weight:bold; font-size: 12px; text-anchor: middle; font-family: arial,helvetica,sans-serif; fill: #333333;" class="svg-txt-center" y="1432" x="-62">database</text></g><g transform="translate(0,0)"><path style="fill:none;stroke:#333333;stroke-width:2;;" d="M122,1260 C30,1260 -62,1332.5  -62,1405"/><polyline style="fill:#ffffff;stroke:#333333;stroke-width:2;fill-opacity:0;" points="-70,1387 -62,1405 -50,1388"/><text style="font-weight:Normal; font-size: 12px; text-anchor: middle; font-family: sans-serif; fill: #333333;" class="" y="1408" x="-40"/><text style="font-weight:Normal; font-size: 12px; text-anchor: start; font-family: sans-serif; fill: #333333;" class="" y="1305" x="-4"/><text style="font-weight:Normal; font-size: 12px; text-anchor: middle; font-family: sans-serif; fill: #333333;" class="" y="1279" x="121"/></g><text style="font-weight:Normal; font-size: 16px; text-anchor: end; font-family: Arial; fill: #ccc;" y="1681" x="1507">www.sketchboard.io</text></svg>